<svg width="29" height="29" viewBox="0 0 29 29" fill="none" xmlns="http://www.w3.org/2000/svg">
<g id="icon">
<circle id="Ellipse 844" cx="14.5" cy="14.5" r="14.5" fill="#F5842B"/>
<g id="Shape">
<path fill-rule="evenodd" clip-rule="evenodd" d="M8.47083 14.1305C8.90877 14.7583 9.80633 15.9413 10.9882 16.9712C12.2137 18.0391 13.6487 18.8588 15.1302 18.8588C16.6118 18.8588 18.0467 18.0391 19.2722 16.9712C20.4541 15.9413 21.3517 14.7583 21.7896 14.1305C21.3517 13.5027 20.4541 12.3198 19.2722 11.2899C18.0467 10.2219 16.6118 9.40226 15.1302 9.40226C13.6487 9.40226 12.2137 10.2219 10.9882 11.2899C9.80633 12.3198 8.90877 13.5027 8.47083 14.1305ZM10.0141 10.0821C11.3497 8.91815 13.1259 7.82617 15.1302 7.82617C17.1345 7.82617 18.9107 8.91815 20.2464 10.0821C21.595 11.2573 22.5928 12.5916 23.0539 13.2582C23.4165 13.7825 23.4165 14.4785 23.0539 15.0029C22.5928 15.6695 21.595 17.0038 20.2464 18.179C18.9107 19.3429 17.1346 20.4349 15.1302 20.4349C13.1259 20.4349 11.3497 19.3429 10.0141 18.179C8.66547 17.0038 7.66763 15.6695 7.20658 15.0029C6.8439 14.4785 6.8439 13.7825 7.20658 13.2582C7.66763 12.5916 8.66547 11.2573 10.0141 10.0821Z" fill="white"/>
<path fill-rule="evenodd" clip-rule="evenodd" d="M15.1302 15.7066C15.9676 15.7066 16.6465 15.001 16.6465 14.1305C16.6465 13.2601 15.9676 12.5544 15.1302 12.5544C14.2928 12.5544 13.6139 13.2601 13.6139 14.1305C13.6139 15.001 14.2928 15.7066 15.1302 15.7066ZM15.1302 17.2827C16.8051 17.2827 18.1628 15.8714 18.1628 14.1305C18.1628 12.3896 16.8051 10.9783 15.1302 10.9783C13.4554 10.9783 12.0976 12.3896 12.0976 14.1305C12.0976 15.8714 13.4554 17.2827 15.1302 17.2827Z" fill="white"/>
</g>
</g>
</svg>
