<svg width="29" height="29" viewBox="0 0 29 29" fill="none" xmlns="http://www.w3.org/2000/svg">
<g id="icon">
<rect id="Rectangle 738" width="29" height="29" rx="14.5" fill="#F5842B"/>
<path id="Shape" fill-rule="evenodd" clip-rule="evenodd" d="M11.3225 8C10.1779 8 9.25 8.87304 9.25 9.95V20.35C9.25 20.709 9.55929 21 9.94082 21C10.3223 21 10.6316 20.709 10.6316 20.35V15.689C10.8477 15.7609 11.0802 15.8 11.3225 15.8H18.8658C20.0243 15.8 20.6684 14.5391 19.9446 13.6879L18.4245 11.9L19.9446 10.1121C20.6684 9.26091 20.0243 8 18.8658 8H11.3225ZM10.6316 13.85C10.6316 14.209 10.9409 14.5 11.3225 14.5H18.8658L17.3456 12.7121C16.9419 12.2373 16.9419 11.5627 17.3456 11.0879L18.8658 9.3H11.3225C10.9409 9.3 10.6316 9.59101 10.6316 9.95V13.85Z" fill="white"/>
</g>
</svg>
