<svg width="23" height="21" viewBox="0 0 23 21" fill="none" xmlns="http://www.w3.org/2000/svg">
<path id="Shape" fill-rule="evenodd" clip-rule="evenodd" d="M9.57121 3.25453C8.99452 2.67784 7.98632 2.09807 6.1262 2.56322C4.25969 3.02996 2.88274 4.42064 2.42537 6.13531C1.97648 7.81817 2.38265 9.95501 4.39273 11.9648L10.7046 18.2756C11.1459 18.7169 11.8584 18.7168 12.2997 18.2752C13.7171 16.8569 15.9694 14.6034 18.608 11.9648C20.6171 9.95575 21.0235 7.81884 20.5747 6.13567C20.1175 4.42081 18.7408 3.02996 16.8739 2.56323C15.0131 2.09803 14.0048 2.67791 13.4282 3.25453C13.1128 3.56994 12.8957 3.91965 12.7572 4.19649C12.689 4.333 12.6426 4.44623 12.6148 4.52038C12.601 4.55727 12.5919 4.58394 12.5872 4.59831L12.5836 4.6097C12.4425 5.09032 12.0014 5.421 11.4998 5.42103C10.9983 5.42106 10.5571 5.09044 10.4159 4.60985L10.4123 4.59844C10.4076 4.58406 10.3986 4.55739 10.3847 4.52049C10.3569 4.44633 10.3105 4.33309 10.2423 4.19656C10.1038 3.9197 9.88665 3.56997 9.57121 3.25453ZM11.4997 2.01872C11.6011 1.89763 11.7112 1.77639 11.8307 1.65699C12.9485 0.539172 14.7642 -0.292987 17.4219 0.371439C20.0734 1.03434 22.0855 3.03237 22.7577 5.55361C23.4384 8.10653 22.715 11.053 20.2056 13.5624C17.5672 16.2008 15.315 18.454 13.8977 19.8723C12.5744 21.1964 10.4311 21.197 9.10719 19.8733L2.79533 13.5624C0.284927 11.0524 -0.438525 8.10596 0.242438 5.55303C0.914917 3.03192 2.92727 1.03433 5.57812 0.371454C8.23537 -0.293025 10.051 0.539236 11.1687 1.65699C11.2881 1.7764 11.3983 1.89763 11.4997 2.01872Z" fill="#F5842B"/>
</svg>
