<svg width="29" height="29" viewBox="0 0 29 29" fill="none" xmlns="http://www.w3.org/2000/svg">
<g id="icon">
<circle id="Ellipse 844" cx="14.5" cy="14.5" r="14.5" fill="#F5842B"/>
<g id="Shape">
<path fill-rule="evenodd" clip-rule="evenodd" d="M14.5 19.8156C17.7033 19.8156 20.3 17.2189 20.3 14.0156C20.3 10.8124 17.7033 8.21563 14.5 8.21563C11.2967 8.21563 8.7 10.8124 8.7 14.0156C8.7 17.2189 11.2967 19.8156 14.5 19.8156ZM14.5 21.2656C18.5041 21.2656 21.75 18.0197 21.75 14.0156C21.75 10.0116 18.5041 6.76562 14.5 6.76562C10.4959 6.76562 7.25 10.0116 7.25 14.0156C7.25 18.0197 10.4959 21.2656 14.5 21.2656Z" fill="white"/>
<path d="M14.5 10.3906C14.0996 10.3906 13.775 10.7152 13.775 11.1156V14.7406C13.775 15.141 14.0996 15.4656 14.5 15.4656H17.4C17.8004 15.4656 18.125 15.141 18.125 14.7406C18.125 14.3402 17.8004 14.0156 17.4 14.0156H15.225V11.1156C15.225 10.7152 14.9004 10.3906 14.5 10.3906Z" fill="white"/>
</g>
</g>
</svg>
